<svg width="182" height="191" viewBox="0 0 182 191" fill="none" xmlns="http://www.w3.org/2000/svg">
<rect x="110" y="56" width="52" height="52" fill="black"/>
<rect x="58" y="108" width="52" height="52" fill="black"/>
<rect x="41" y="41" width="52" height="52" fill="black"/>
<path d="M21.8482 172.871L21.8373 183.962L30.9076 183.971L30.9203 171.087L33.6801 171.089L33.664 187.349L8.07028 187.324L8.08614 171.24L10.8635 171.243L10.851 183.952L19.0775 183.96L19.0884 172.868L21.8482 172.871ZM24.1454 160.621L24.137 169.199L21.4827 169.197L21.4912 160.618L24.1454 160.621ZM21.7427 137.24C24.2505 137.242 26.4415 137.666 28.3157 138.512C30.1781 139.357 31.6008 140.554 32.5836 142.102C33.5665 143.65 34.0569 145.455 34.0549 147.517C34.0529 149.533 33.5589 151.32 32.573 152.877C31.5754 154.435 30.1621 155.646 28.3331 156.512C26.4924 157.366 24.365 157.803 21.9509 157.824L20.1052 157.822C17.6443 157.82 15.4709 157.39 13.585 156.532C11.6991 155.675 10.2589 154.467 9.26437 152.907C8.25811 151.336 7.75597 149.542 7.75796 147.527C7.75998 145.476 8.25981 143.672 9.25744 142.114C10.2434 140.545 11.6801 139.339 13.5676 138.497C15.4435 137.655 17.6294 137.236 20.1255 137.238L21.7427 137.24ZM20.0871 140.596C17.0519 140.593 14.7251 141.2 13.1068 142.417C11.4766 143.634 10.6605 145.338 10.6583 147.53C10.6562 149.662 11.469 151.345 13.0967 152.577C14.7127 153.797 16.9621 154.426 19.8449 154.464L21.7257 154.466C24.6671 154.469 26.9822 153.856 28.6709 152.627C30.3479 151.387 31.1875 149.683 31.1896 147.515C31.1918 145.335 30.4024 143.647 28.8216 142.45C27.229 141.253 24.9503 140.635 21.9855 140.597L20.0871 140.596ZM22.4296 118.063L22.419 128.803L33.7217 128.814L33.7184 132.189L8.12467 132.164L8.1403 116.308L10.9176 116.311L10.9053 128.792L19.6592 128.8L19.6698 118.06L22.4296 118.063ZM22.4492 98.1642L22.4386 108.904L33.7414 108.916L33.738 112.291L8.14429 112.265L8.15992 96.4099L10.9373 96.4126L10.925 108.893L19.6789 108.902L19.6894 98.1615L22.4492 98.1642ZM33.7612 88.7711L33.7579 92.1461L8.16415 92.1208L8.16748 88.7458L33.7612 88.7711ZM25.6648 63.7494C28.3715 64.0685 30.4623 65.0725 31.9372 66.7614C33.4004 68.4387 34.1306 70.6718 34.1279 73.4609C34.1249 76.4843 33.0385 78.909 30.8687 80.735C28.699 82.5493 25.7977 83.4546 22.1649 83.451L19.704 83.4486C17.325 83.4463 15.2337 83.0223 13.4298 82.1768C11.626 81.3196 10.2443 80.1112 9.28495 78.5516C8.31383 76.9921 7.82928 75.1869 7.8313 73.1361C7.83398 70.4174 8.59785 68.2384 10.1229 66.5993C11.6362 64.9602 13.7348 64.0072 16.4187 63.7403L16.4154 67.1329C14.376 67.4238 12.8988 68.061 11.9838 69.0445C11.0688 70.0163 10.6104 71.3811 10.6086 73.1389C10.6065 75.2951 11.4017 76.9893 12.9943 78.2213C14.5868 79.4416 16.8538 80.0532 19.7952 80.0561L22.2737 80.0586C25.051 80.0613 27.2606 79.4834 28.9024 78.3249C30.5441 77.1663 31.3661 75.5441 31.3681 73.4582C31.37 71.5832 30.9495 70.1472 30.1067 69.1503C29.2523 68.1416 27.7705 67.4722 25.6614 67.142L25.6648 63.7494ZM21.9746 44.6559L21.9637 55.7477L31.034 55.7566L31.0467 42.8719L33.8065 42.8746L33.7904 59.1344L8.1967 59.1091L8.21255 43.0252L10.9899 43.0279L10.9774 55.7369L19.2039 55.745L19.2149 44.6532L21.9746 44.6559Z" fill="black"/>
<path d="M10.84 23.0955L10.8223 33.115L7.44728 33.1091L7.49252 7.51536L16.932 7.53204C19.7327 7.53699 21.9229 8.25571 23.5024 9.68819C25.0936 11.1207 25.8871 13.0147 25.883 15.3701C25.8786 17.8545 25.0959 19.7692 23.5349 21.114C21.9857 22.4473 19.7638 23.1113 16.8693 23.1062L10.84 23.0955ZM10.8449 20.3358L16.9093 20.3465C18.714 20.3497 20.0975 19.9302 21.06 19.0882C22.0224 18.2344 22.5051 17.0048 22.5079 15.3993C22.5106 13.8759 22.0323 12.6563 21.073 11.7405C20.1136 10.8248 18.7961 10.3478 17.1204 10.3097L10.8626 10.2987L10.8449 20.3358ZM44.5793 33.1747L41.2043 33.1687L41.2495 7.57503L44.6245 7.58099L44.5793 33.1747ZM61.5667 33.2047L61.612 7.61102L68.8366 7.62379C71.0631 7.62773 73.031 8.1234 74.7402 9.11079C76.4494 10.0982 77.7653 11.5009 78.6878 13.3189C79.6221 15.137 80.093 17.2238 80.1006 19.5793L80.0977 21.214C80.0934 23.6281 79.621 25.7425 78.6802 27.5572C77.7513 29.372 76.4187 30.7642 74.6826 31.7338C72.9583 32.7034 70.9476 33.1979 68.6507 33.2173L61.5667 33.2047ZM64.9821 10.3943L64.9466 30.4509L68.4974 30.4572C71.0989 30.4618 73.1218 29.6568 74.5661 28.0422C76.0221 26.4275 76.7527 24.1261 76.758 21.1378L76.7606 19.6437C76.7658 16.7374 76.0842 14.4804 74.716 12.8725C73.3595 11.2529 71.4273 10.4292 68.9195 10.4013L64.9821 10.3943ZM109.75 26.6102L99.0269 26.5913L96.6069 33.2667L93.1264 33.2605L102.945 7.68408L105.898 7.6893L115.644 33.3003L112.181 33.2942L109.75 26.6102ZM100.051 23.8157L108.753 23.8311L104.414 11.8527L100.051 23.8157ZM145.328 10.5364L137.101 10.5218L137.061 33.3382L133.704 33.3322L133.744 10.5159L125.535 10.5014L125.54 7.72402L145.333 7.75901L145.328 10.5364ZM179.101 21.4418C179.097 23.9496 178.671 26.1402 177.824 28.0137C176.977 29.8755 175.779 31.2972 174.23 32.2789C172.682 33.2605 170.876 33.7495 168.814 33.7459C166.798 33.7423 165.012 33.247 163.455 32.2598C161.898 31.261 160.688 29.8467 159.824 28.0171C158.971 26.1757 158.536 24.048 158.517 21.6339L158.52 19.7882C158.524 17.3273 158.956 15.1542 159.815 13.269C160.673 11.3838 161.883 9.94452 163.443 8.95118C165.015 7.94615 166.809 7.44541 168.825 7.44897C170.876 7.4526 172.68 7.95383 174.236 8.95268C175.805 9.93983 177.009 11.3775 177.85 13.2657C178.69 15.1422 179.108 17.3285 179.104 19.8246L179.101 21.4418ZM175.746 19.7835C175.752 16.7483 175.147 14.4211 173.931 12.8018C172.715 11.1707 171.011 10.3532 168.82 10.3494C166.687 10.3456 165.004 11.1571 163.771 12.7838C162.549 14.3988 161.918 16.6477 161.878 19.5305L161.874 21.4113C161.869 24.3527 162.48 26.6683 163.708 28.3579C164.947 30.0359 166.651 30.8768 168.819 30.8806C170.998 30.8845 172.687 30.0965 173.885 28.5165C175.083 26.9249 175.703 24.6467 175.743 21.6819L175.746 19.7835Z" fill="black"/>
<rect x="67" y="67" width="87" height="81" fill="white"/>
<rect x="125" y="136" width="52" height="52" fill="black"/>
</svg>
