<?xml version="1.0" encoding="utf-8"?>
<!-- Generator: Adobe Illustrator 19.0.0, SVG Export Plug-In . SVG Version: 6.00 Build 0)  -->
<svg version="1.1" id="Layer_1" xmlns="http://www.w3.org/2000/svg" xmlns:xlink="http://www.w3.org/1999/xlink" x="0px" y="0px"
	 viewBox="0 0 96 96" style="enable-background:new 0 0 96 96;" xml:space="preserve">
<style type="text/css">
	.st0{fill:#C0392B;}
	.st1{fill:#E74C3C;}
	.st2{fill:#ECF0F1;}
</style>
<g id="XMLID_1_">
	<path id="XMLID_3_" class="st0" d="M28.2,18.3c-3.1,0-5.7,2.5-5.7,5.7v22.6v11.3v17c0,3.1,2.5,5.7,5.7,5.7h39.6
		c3.1,0,5.7-2.5,5.7-5.7v-17V46.6V35.3l-17-17H28.2z"/>
	<path id="XMLID_4_" class="st1" d="M28.2,15.5c-3.1,0-5.7,2.5-5.7,5.7v22.6v11.3v17c0,3.1,2.5,5.7,5.7,5.7h39.6
		c3.1,0,5.7-2.5,5.7-5.7v-17V43.8V32.5l-17-17H28.2z"/>
	<path id="XMLID_5_" class="st0" d="M73.4,32.5l-17-17v11.3c0,3.1,2.5,5.7,5.7,5.7H73.4z"/>
	<path id="XMLID_6_" class="st2" d="M68.1,43.8h-0.8C67,44,65.6,46,65,46.6c-0.2,0.3-0.4,0.6-0.6,0.6c-2.1,2.5-6.6,6.8-9.2,9
		c-0.4,0.3-0.7,0.6-0.8,0.6c-0.2,0.3-2,1.4-2.8,2c-2.6,1.7-5.6,3.1-7.9,3.7c-4.6,1.1-8.2,0.8-12.9-1.4c-1.4-0.6-3.4-1.7-4.5-2.5
		c-1.1-0.8-1-0.8-1,0.6v1.4l0.7,0.3c0.9,0.6,3,1.7,4.3,2.3c1,0.6,1.3,0.8,0.8,0.8c-0.5-0.3-3.4-0.3-4.6,0h-1.1c0,0,0,0.6,0,1.1v1.1
		h0.4c1.6-0.6,5.1-0.6,6.7-0.3c1.9,0.3,3.2,0.6,4.9,1.4c3.1,1.4,5.6,4.2,6.7,7.1l0.2,0.6h1.2h1.2l-0.1-0.3c-0.4-1.7-1.5-3.7-2.9-5.1
		c-0.9-1.1-2.5-2.3-3.2-2.8h-0.2c-0.1-0.3-1.2-0.8-1.6-0.8c-0.3-0.3-0.5-0.3-0.5-0.3c0-0.3,0.2-0.3,0.4,0c0.6,0,3-0.3,4.1-0.6
		c3-0.6,5.9-1.7,8.8-3.4c1-0.6,3.4-2.5,4.4-3.1c0.7-0.8,0.9-0.8,0.6-0.6c-0.1,0.3-0.3,0.6-0.4,0.8c-0.1,0.3-0.4,0.6-0.5,0.8
		c-2.2,3.4-3.6,7.6-4,12.4c-0.1,0.8-0.1,1.7-0.1,2v0.8h6.6h6.6l-0.2-0.3c-1.2-1.7-2.7-5.4-3.2-7.9c-0.4-2-0.5-5.1-0.3-6.8
		c0.7-4.5,3.3-8.5,7.6-11c0.4-0.3,1-0.6,1.3-0.8l0.5-0.3v-0.8c0-0.6,0-1.1-0.1-1.1c-1,0.6-3.3,2-4.4,2.5c-0.6,0.6-0.6,0.6-0.1,0
		c0.8-0.8,2.1-2.3,3.5-4l0.6-0.6h-1.4H68.1z"/>
</g>
</svg>
